<svg width="33" height="32" viewBox="0 0 33 32" fill="none" xmlns="http://www.w3.org/2000/svg">
<path d="M4.74883 12H0.741364V5C0.742954 3.67441 1.27123 2.40356 2.21032 1.46622C3.14941 0.528882 4.42263 0.00158786 5.7507 0H12.7638V4H5.7507C5.48499 4 5.23016 4.10536 5.04227 4.29289C4.85439 4.48043 4.74883 4.73478 4.74883 5V12Z" fill="#5FFFB2" fill-opacity="0.2"/>
<path d="M32.8011 12H28.7937V5C28.7937 4.73478 28.6881 4.48043 28.5002 4.29289C28.3123 4.10536 28.0575 4 27.7918 4H20.7787V0H27.7918C29.1199 0.00158786 30.3931 0.528882 31.3322 1.46622C32.2713 2.40356 32.7995 3.67441 32.8011 5V12ZM12.7638 32H5.7507C4.42263 31.9984 3.14941 31.4711 2.21032 30.5338C1.27123 29.5964 0.742954 28.3256 0.741364 27V20H4.74883V27C4.74883 27.2652 4.85439 27.5196 5.04227 27.7071C5.23016 27.8946 5.48499 28 5.7507 28H12.7638V32Z" fill="#00FF85"/>
<path d="M27.7918 32H20.7787V28H27.7918C28.0575 28 28.3123 27.8946 28.5002 27.7071C28.6881 27.5196 28.7936 27.2652 28.7936 27V20H32.8011V27C32.7995 28.3256 32.2712 29.5964 31.3322 30.5338C30.3931 31.4711 29.1199 31.9984 27.7918 32Z" fill="#5FFFB2" fill-opacity="0.2"/>
</svg>
