<svg width="71" height="71" viewBox="0 0 71 71" fill="none" xmlns="http://www.w3.org/2000/svg">
<path d="M13.5343 57.4657C14.3665 58.2976 15.495 58.7649 16.6717 58.7649C17.8483 58.7649 18.9768 58.2976 19.809 57.4657L35.5 41.7747L51.191 57.4657C52.0279 58.274 53.1488 58.7213 54.3123 58.7111C55.4758 58.701 56.5888 58.2343 57.4115 57.4116C58.2343 56.5888 58.701 55.4759 58.7111 54.3124C58.7212 53.1489 58.2739 52.0279 57.4656 51.191L41.7746 35.5L57.4656 19.809C58.2739 18.9721 58.7212 17.8512 58.7111 16.6877C58.701 15.5242 58.2343 14.4112 57.4115 13.5885C56.5888 12.7657 55.4758 12.299 54.3123 12.2889C53.1488 12.2788 52.0279 12.7261 51.191 13.5344L35.5 29.2254L19.809 13.5344C18.9721 12.7261 17.8511 12.2788 16.6876 12.2889C15.5241 12.299 14.4112 12.7657 13.5884 13.5885C12.7657 14.4112 12.299 15.5242 12.2889 16.6877C12.2787 17.8512 12.726 18.9721 13.5343 19.809L29.2253 35.5L13.5343 51.191C12.7024 52.0232 12.2351 53.1517 12.2351 54.3283C12.2351 55.505 12.7024 56.6335 13.5343 57.4657V57.4657Z" fill="white"/>
</svg>
