<svg width="31" height="30" viewBox="0 0 31 30" fill="none" xmlns="http://www.w3.org/2000/svg">
<path d="M15.4603 8C17.6704 8 19.4678 6.206 19.4678 4C19.4678 1.794 17.6704 0 15.4603 0C13.2502 0 11.4529 1.794 11.4529 4C11.4529 6.206 13.2502 8 15.4603 8Z" fill="#5FFFB2"/>
<path d="M26.4809 8C28.691 8 30.4883 6.206 30.4883 4C30.4883 1.794 28.691 0 26.4809 0C24.2707 0 22.4734 1.794 22.4734 4C22.4734 6.206 24.2707 8 26.4809 8Z" fill="#5FFFB2" fill-opacity="0.2"/>
<path d="M26.4809 11C24.2707 11 22.4734 12.794 22.4734 15C22.4734 17.206 24.2707 19 26.4809 19C28.691 19 30.4883 17.206 30.4883 15C30.4883 12.794 28.691 11 26.4809 11Z" fill="#5FFFB2"/>
<path d="M4.43978 22C2.22966 22 0.432312 23.794 0.432312 26C0.432312 28.206 2.22966 30 4.43978 30C6.6499 30 8.44725 28.206 8.44725 26C8.44725 23.794 6.6499 22 4.43978 22Z" fill="#5FFFB2" fill-opacity="0.2"/>
<path d="M26.4809 22C24.6184 22 23.0645 23.28 22.6157 25H19.3255C19.1461 24.3125 18.7861 23.6852 18.2828 23.1828C17.7795 22.6804 17.151 22.3211 16.4622 22.142V18.858C18.1854 18.411 19.4678 16.858 19.4678 15C19.4678 12.794 17.6704 11 15.4603 11C13.5979 11 12.044 12.28 11.5951 14H8.30499C8.12552 13.3125 7.76557 12.6852 7.26225 12.1828C6.75893 11.6804 6.13046 11.3211 5.44165 11.142V7.858C7.16486 7.411 8.44725 5.858 8.44725 4C8.44725 1.794 6.6499 0 4.43978 0C2.22966 0 0.432312 1.794 0.432312 4C0.432312 5.858 1.7147 7.41 3.43791 7.858V11.142C1.7147 11.589 0.432312 13.142 0.432312 15C0.432312 17.206 2.22966 19 4.43978 19C6.30225 19 7.85615 17.72 8.30499 16H11.5951C11.7746 16.6875 12.1345 17.3148 12.6379 17.8172C13.1412 18.3196 13.7696 18.6789 14.4585 18.858V22.142C12.7352 22.589 11.4529 24.142 11.4529 26C11.4529 28.206 13.2502 30 15.4603 30C17.3228 30 18.8767 28.72 19.3255 27H22.6157C23.0635 28.72 24.6194 30 26.4809 30C28.691 30 30.4883 28.206 30.4883 26C30.4883 23.794 28.691 22 26.4809 22Z" fill="#5FFFB2"/>
</svg>
