<svg width="33" height="32" viewBox="0 0 33 32" fill="none" xmlns="http://www.w3.org/2000/svg">
<path d="M7.0691 8H1.0579C0.792186 8 0.537357 7.89464 0.34947 7.70711C0.161584 7.51957 0.0560303 7.26522 0.0560303 7V1C0.0560303 0.734784 0.161584 0.48043 0.34947 0.292893C0.537357 0.105357 0.792186 0 1.0579 0H7.0691C7.33481 0 7.58964 0.105357 7.77753 0.292893C7.96542 0.48043 8.07097 0.734784 8.07097 1V7C8.07097 7.26522 7.96542 7.51957 7.77753 7.70711C7.58964 7.89464 7.33481 8 7.0691 8ZM19.0915 8H13.0803C12.8146 8 12.5598 7.89464 12.3719 7.70711C12.184 7.51957 12.0784 7.26522 12.0784 7V1C12.0784 0.734784 12.184 0.48043 12.3719 0.292893C12.5598 0.105357 12.8146 0 13.0803 0H19.0915C19.3572 0 19.6121 0.105357 19.7999 0.292893C19.9878 0.48043 20.0934 0.734784 20.0934 1V7C20.0934 7.26522 19.9878 7.51957 19.7999 7.70711C19.6121 7.89464 19.3572 8 19.0915 8Z" fill="#00FF85"/>
<path d="M19.0915 20H13.0803C12.8146 20 12.5598 19.8946 12.3719 19.7071C12.184 19.5196 12.0784 19.2652 12.0784 19V13C12.0784 12.7348 12.184 12.4804 12.3719 12.2929C12.5598 12.1054 12.8146 12 13.0803 12H19.0915C19.3572 12 19.612 12.1054 19.7999 12.2929C19.9878 12.4804 20.0934 12.7348 20.0934 13V19C20.0934 19.2652 19.9878 19.5196 19.7999 19.7071C19.612 19.8946 19.3572 20 19.0915 20Z" fill="#5FFFB2" fill-opacity="0.2"/>
<path d="M31.1139 8H25.1027C24.837 8 24.5822 7.89464 24.3943 7.70711C24.2064 7.51957 24.1008 7.26522 24.1008 7V1C24.1008 0.734784 24.2064 0.48043 24.3943 0.292893C24.5822 0.105357 24.837 0 25.1027 0H31.1139C31.3796 0 31.6344 0.105357 31.8223 0.292893C32.0102 0.48043 32.1158 0.734784 32.1158 1V7C32.1158 7.26522 32.0102 7.51957 31.8223 7.70711C31.6344 7.89464 31.3796 8 31.1139 8Z" fill="#00FF85"/>
<path d="M7.0691 20H1.0579C0.792186 20 0.537357 19.8946 0.34947 19.7071C0.161584 19.5196 0.0560303 19.2652 0.0560303 19V13C0.0560303 12.7348 0.161584 12.4804 0.34947 12.2929C0.537357 12.1054 0.792186 12 1.0579 12H7.0691C7.33481 12 7.58964 12.1054 7.77753 12.2929C7.96542 12.4804 8.07097 12.7348 8.07097 13V19C8.07097 19.2652 7.96542 19.5196 7.77753 19.7071C7.58964 19.8946 7.33481 20 7.0691 20Z" fill="#5FFFB2" fill-opacity="0.2"/>
<path d="M7.0691 32H1.0579C0.792186 32 0.537357 31.8946 0.34947 31.7071C0.161584 31.5196 0.0560303 31.2652 0.0560303 31V25C0.0560303 24.7348 0.161584 24.4804 0.34947 24.2929C0.537357 24.1054 0.792186 24 1.0579 24H7.0691C7.33481 24 7.58964 24.1054 7.77753 24.2929C7.96542 24.4804 8.07097 24.7348 8.07097 25V31C8.07097 31.2652 7.96542 31.5196 7.77753 31.7071C7.58964 31.8946 7.33481 32 7.0691 32Z" fill="#5FFFB2"/>
<path d="M29.6111 18H26.6055C26.4727 18 26.3452 17.9473 26.2513 17.8536C26.1574 17.7598 26.1046 17.6326 26.1046 17.5V14.5C26.1046 14.3674 26.1574 14.2402 26.2513 14.1464C26.3452 14.0527 26.4727 14 26.6055 14H29.6111C29.744 14 29.8714 14.0527 29.9653 14.1464C30.0593 14.2402 30.1121 14.3674 30.1121 14.5V17.5C30.1121 17.6326 30.0593 17.7598 29.9653 17.8536C29.8714 17.9473 29.744 18 29.6111 18Z" fill="#5FFFB2" fill-opacity="0.2"/>
<path d="M17.5887 30H14.5831C14.4502 30 14.3228 29.9473 14.2289 29.8536C14.1349 29.7598 14.0822 29.6326 14.0822 29.5V26.5C14.0822 26.3674 14.1349 26.2402 14.2289 26.1464C14.3228 26.0527 14.4502 26 14.5831 26H17.5887C17.7215 26 17.849 26.0527 17.9429 26.1464C18.0368 26.2402 18.0896 26.3674 18.0896 26.5V29.5C18.0896 29.6326 18.0368 29.7598 17.9429 29.8536C17.849 29.9473 17.7215 30 17.5887 30ZM29.6111 30H26.6055C26.4726 30 26.3452 29.9473 26.2513 29.8536C26.1573 29.7598 26.1046 29.6326 26.1046 29.5V26.5C26.1046 26.3674 26.1573 26.2402 26.2513 26.1464C26.3452 26.0527 26.4726 26 26.6055 26H29.6111C29.744 26 29.8714 26.0527 29.9653 26.1464C30.0593 26.2402 30.112 26.3674 30.112 26.5V29.5C30.112 29.6326 30.0593 29.7598 29.9653 29.8536C29.8714 29.9473 29.744 30 29.6111 30Z" fill="#5FFFB2"/>
</svg>
